<?xml version="1.0" encoding="UTF-8" standalone="no"?>
<!-- Generator: Adobe Illustrator 12.0.0, SVG Export Plug-In . SVG Version: 6.00 Build 51448)  -->

<svg
   xmlns:dc="http://purl.org/dc/elements/1.1/"
   xmlns:cc="http://creativecommons.org/ns#"
   xmlns:rdf="http://www.w3.org/1999/02/22-rdf-syntax-ns#"
   xmlns:svg="http://www.w3.org/2000/svg"
   xmlns="http://www.w3.org/2000/svg"
   xmlns:sodipodi="http://sodipodi.sourceforge.net/DTD/sodipodi-0.dtd"
   xmlns:inkscape="http://www.inkscape.org/namespaces/inkscape"
   version="1.1"
   id="Layer_1"
   width="601"
   height="601"
   viewBox="0 0 601 601"
   overflow="visible"
   enable-background="new 0 0 601 601"
   xml:space="preserve"
   inkscape:version="0.48.2 r9819"
   sodipodi:docname="MA_Route_4.svg"><metadata
   id="metadata3148"><rdf:RDF><cc:Work
       rdf:about=""><dc:format>image/svg+xml</dc:format><dc:type
         rdf:resource="http://purl.org/dc/dcmitype/StillImage" /></cc:Work></rdf:RDF></metadata><defs
   id="defs3146" /><sodipodi:namedview
   pagecolor="#ffffff"
   bordercolor="#666666"
   borderopacity="1"
   objecttolerance="10"
   gridtolerance="10"
   guidetolerance="10"
   inkscape:pageopacity="0"
   inkscape:pageshadow="2"
   inkscape:window-width="640"
   inkscape:window-height="480"
   id="namedview3144"
   showgrid="false"
   inkscape:zoom="0.39267887"
   inkscape:cx="300.5"
   inkscape:cy="300.5"
   inkscape:window-x="0"
   inkscape:window-y="0"
   inkscape:window-maximized="0"
   inkscape:current-layer="Layer_1" />
<g
   id="g3110">
	<g
   id="g3112">
		<g
   id="g3114">
			<path
   fill="#FFFFFF"
   d="M0.5,50.5c0-27.6142578,22.3852539-50,50-50h500c27.6142578,0,50,22.3857422,50,50v500     c0,27.6152344-22.3857422,50-50,50h-500c-27.6147461,0-50-22.3847656-50-50V50.5L0.5,50.5z"
   id="path3116" />
			<path
   fill="#FFFFFF"
   d="M300.5,300.5"
   id="path3118" />
		</g>
		<g
   id="g3120">
			<path
   fill="none"
   stroke="#000000"
   stroke-linecap="round"
   stroke-linejoin="round"
   stroke-miterlimit="3.863693"
   d="M0.5,50.5     c0-27.6142578,22.3852539-50,50-50h500c27.6142578,0,50,22.3857422,50,50v500c0,27.6152344-22.3857422,50-50,50h-500     c-27.6147461,0-50-22.3847656-50-50V50.5L0.5,50.5z"
   id="path3122" />
			<path
   fill="none"
   stroke="#000000"
   stroke-linecap="round"
   stroke-linejoin="round"
   stroke-miterlimit="3.863693"
   d="     M300.5,300.5"
   id="path3124" />
		</g>
	</g>
	<g
   id="g3126">
		<g
   id="g3128">
			<path
   d="M10.5,50.5c0-22.0913086,17.9082031-40,40-40h500c22.0917969,0,40,17.9086914,40,40v500     c0,22.0917969-17.9082031,40-40,40h-500c-22.0917969,0-40-17.9082031-40-40V50.5L10.5,50.5z"
   id="path3130" />
			<path
   d="M300.5,300.5"
   id="path3132" />
		</g>
	</g>
	<g
   id="g3134">
		<g
   id="g3136">
			<path
   fill="#FFFFFF"
   d="M25.5,50.5c0-13.8071289,11.1923828-25,25-25h500c13.8066406,0,25,11.1928711,25,25v500     c0,13.8076172-11.1933594,25-25,25h-500c-13.8076172,0-25-11.1923828-25-25V50.5L25.5,50.5z"
   id="path3138" />
			<path
   fill="#FFFFFF"
   d="M300.5,300.5"
   id="path3140" />
		</g>
	</g>
</g>

</svg>